<svg height="512" viewBox="0 0 60 58" width="512" xmlns="http://www.w3.org/2000/svg"><g id="Page-1" fill="none" fill-rule="evenodd"><g id="016---Voodoo-Doll" fill="rgb(0,0,0)" fill-rule="nonzero"><path id="Shape" d="m42 12c0-6.627417-5.372583-12-12-12s-12 5.372583-12 12 5.372583 12 12 12 12-5.372583 12-12zm-18.293.707c-.3923789.3789722-1.0160848.3735524-1.4018186-.0121814s-.3911536-1.0094397-.0121814-1.4018186l1.293-1.293-1.293-1.293c-.3789722-.39237889-.3735524-1.01608478.0121814-1.40181858.3857338-.38573379 1.0094397-.39115363 1.4018186-.01218142l1.293 1.293 1.293-1.293c.3923789-.37897221 1.0160848-.37355237 1.4018186.01218142.3857338.3857338.3911536 1.00943969.0121814 1.40181858l-1.293 1.293 1.293 1.293c.3789722.3923789.3735524 1.0160848-.0121814 1.4018186s-1.0094397.3911536-1.4018186.0121814l-1.293-1.293zm9.293 5.293h-.382l.277.553c.2468713.4942948.0462948 1.0951287-.448 1.342-.4942949.2468713-1.0951287.0462948-1.342-.448l-.723-1.447h-3.382c-.5522847 0-1-.4477153-1-1s.4477153-1 1-1h6c.5522847 0 1 .4477153 1 1s-.4477153 1-1 1zm4.707-6.707c.3789722.3923789.3735524 1.0160848-.0121814 1.4018186s-1.0094397.3911536-1.4018186.0121814l-1.293-1.293-1.293 1.293c-.3923789.3789722-1.0160848.3735524-1.4018186-.0121814s-.3911536-1.0094397-.0121814-1.4018186l1.293-1.293-1.293-1.293c-.3789722-.39237889-.3735524-1.01608478.0121814-1.40181858.3857338-.38573379 1.0094397-.39115363 1.4018186-.01218142l1.293 1.293 1.293-1.293c.3923789-.37897221 1.0160848-.37355237 1.4018186.01218142.3857338.3857338.3911536 1.00943969.0121814 1.40181858l-1.293 1.293z"/><path id="Shape" d="m56 8c-2.209139 0-4 1.790861-4 4 .0034834.7118154.1993989 1.4094405.567 2.019l-9.981 9.981h-26.172l-8.981-8.981c.36760108-.6095595.56351661-1.3071846.567-2.019 0-2.209139-1.790861-4-4-4s-4 1.790861-4 4 1.790861 4 4 4c.7118154-.0034834 1.40944053-.1993989 2.019-.567l7.567 7.567h-4.417c-1.61495193-.0327096-2.98715435 1.1740992-3.161 2.78-.0611516.8316402.22660076 1.6512096.79422275 2.2620862s1.36389179.9579354 2.19777725.9579138h12c.5522847 0 1 .4477153 1 1v9.586l-7.981 7.981c-.6095595-.3676011-1.3071846-.5635166-2.019-.567-2.209139 0-4 1.790861-4 4s1.790861 4 4 4 4-1.790861 4-4c-.0034834-.7118154-.1993989-1.4094405-.567-2.019l6.567-6.567v11.417c-.0327096 1.6149519 1.1740992 2.9871543 2.78 3.161.8316402.0611516 1.6512096-.2266008 2.2620862-.7942228.6108766-.5676219.9579354-1.3638917.9579138-2.1977772v-12c0-1.1045695.8954305-2 2-2s2 .8954305 2 2v11.831c-.0327096 1.6149519 1.1740992 2.9871543 2.78 3.161.8316402.0611516 1.6512096-.2266008 2.2620862-.7942228.6108766-.5676219.9579354-1.3638917.9579138-2.1977772v-18.586l6.567 6.567c-.3676011.6095595-.5635166 1.3071846-.567 2.019 0 2.209139 1.790861 4 4 4s4-1.790861 4-4-1.790861-4-4-4c-.7118154.0034834-1.4094405.1993989-2.019.567l-7.981-7.981v-2.586c0-.5522847.4477153-1 1-1h11.831c1.6149519.0327096 2.9871543-1.1740992 3.161-2.78.0611516-.8316402-.2266008-1.6512096-.7942228-2.2620862-.5676219-.6108766-1.3638917-.9579354-2.1977772-.9579138h-5.586l8.567-8.567c.6095595.3676011 1.3071846.5635166 2.019.567 2.209139 0 4-1.790861 4-4s-1.790861-4-4-4zm-54 5c0-1.1045695.8954305-2 2-2s2 .8954305 2 2-.8954305 2-2 2c-.53043298 0-1.03914081-.2107137-1.41421356-.5857864-.37507276-.3750728-.58578644-.8837806-.58578644-1.4142136zm10 41c-1.1045695 0-2-.8954305-2-2s.8954305-2 2-2 2 .8954305 2 2-.8954305 2-2 2zm38-9c0 1.1045695-.8954305 2-2 2s-2-.8954305-2-2 .8954305-2 2-2 2 .8954305 2 2zm6-31c-1.1045695 0-2-.8954305-2-2s.8954305-2 2-2 2 .8954305 2 2-.8954305 2-2 2z"/></g></g></svg>